<svg xmlns="http://www.w3.org/2000/svg" xmlns:xlink="http://www.w3.org/1999/xlink" width="272" height="40" viewBox="0 0 272 40">
  <defs>
    <path id="logo-a" d="M7.0387871,38.2978723 L7.0387871,24.2622572 L20.2911242,24.2622572 L20.2911242,17.4629972 L7.0387871,17.4629972 L7.0387871,9.35245143 L22.3299453,9.35245143 L22.3299453,2.55319149 L0,2.55319149 L0,38.2978723 L7.0387871,38.2978723 Z M45.6745795,38.7234043 C48.1715214,38.7234043 50.5225381,38.2529802 52.7276296,37.3121322 C54.9327212,36.3712841 56.8864971,35.0654519 58.5889575,33.3946356 C60.2914178,31.7238192 61.6209583,29.7853478 62.5775789,27.5792214 C63.5341995,25.3730949 64.0125098,23.0047533 64.0125098,20.4741965 C64.0125098,18.0085257 63.5341995,15.6726271 62.5775789,13.4665007 C61.6209583,11.2603742 60.2914178,9.3056813 58.5889575,7.60242191 C56.8864971,5.89916252 54.9327212,4.56088728 52.7276296,3.5875962 C50.5225381,2.61430512 48.1715214,2.12765957 45.6745795,2.12765957 C43.1452099,2.12765957 40.7779793,2.61430512 38.5728877,3.5875962 C36.3677962,4.56088728 34.4302342,5.89916252 32.7602016,7.60242191 C31.0901691,9.3056813 29.7849495,11.2603742 28.8445428,13.4665007 C27.9041361,15.6726271 27.4339328,18.0085257 27.4339328,20.4741965 C27.4339328,23.0047533 27.9041361,25.3730949 28.8445428,27.5792214 C29.7849495,29.7853478 31.0901691,31.7238192 32.7602016,33.3946356 C34.4302342,35.0654519 36.3677962,36.3712841 38.5728877,37.3121322 C40.7779793,38.2529802 43.1452099,38.7234043 45.6745795,38.7234043 Z M45.8107343,31.9148936 C44.2276576,31.9148936 42.7657347,31.6227912 41.4249656,31.0385864 C40.0841965,30.4543815 38.9049659,29.634872 37.8872737,28.5800577 C36.8695815,27.5252434 36.0780431,26.30815 35.5126585,24.9287775 C34.947274,23.549405 34.6645817,22.064551 34.6645817,20.4742157 C34.6645817,18.8514245 34.9391971,17.3422286 35.4884278,15.9466282 C36.0376585,14.5510278 36.813043,13.3258204 37.8145814,12.2710061 C38.8161197,11.2161918 39.9791965,10.3966823 41.3038117,9.81247746 C42.628427,9.22827263 44.0661191,8.93617021 45.6168882,8.93617021 C47.1676573,8.93617021 48.6053494,9.22827263 49.9299646,9.81247746 C51.2545799,10.3966823 52.4095798,11.2161918 53.3949643,12.2710061 C54.3803488,13.3258204 55.1557333,14.5510278 55.7211179,15.9466282 C56.2865024,17.3422286 56.5691947,18.8514245 56.5691947,20.4742157 C56.5691947,22.064551 56.2945793,23.549405 55.7453486,24.9287775 C55.1961179,26.30815 54.4368872,27.5252434 53.4676566,28.5800577 C52.4984259,29.634872 51.3595799,30.4543815 50.0511185,31.0385864 C48.7426571,31.6227912 47.3291957,31.9148936 45.8107343,31.9148936 Z M78.2510413,38.2978723 L78.2510412,22.2850467 L89.4631484,37.8117882 L89.5602229,37.8117882 L101.209165,21.2265985 L101.209165,38.2978723 L108.247068,38.2978723 L108.247068,1.06382979 L108.149994,1.06382979 L89.6257481,26.7995528 L71.5043621,1.06382979 L71.4558249,1.06382979 L71.4558249,38.2978723 L78.2510413,38.2978723 Z M133.93103,38.7234043 C136.427972,38.7234043 138.778988,38.2529802 140.98408,37.3121322 C143.189172,36.3712841 145.142947,35.0654519 146.845408,33.3946356 C148.547868,31.7238192 149.877409,29.7853478 150.834029,27.5792214 C151.79065,25.3730949 152.26896,23.0047533 152.26896,20.4741965 C152.26896,18.0085257 151.79065,15.6726271 150.834029,13.4665007 C149.877409,11.2603742 148.547868,9.3056813 146.845408,7.60242191 C145.142947,5.89916252 143.189172,4.56088728 140.98408,3.5875962 C138.778988,2.61430512 136.427972,2.12765957 133.93103,2.12765957 C131.40166,2.12765957 129.03443,2.61430512 126.829338,3.5875962 C124.624247,4.56088728 122.686685,5.89916252 121.016652,7.60242191 C119.346619,9.3056813 118.0414,11.2603742 117.100993,13.4665007 C116.160586,15.6726271 115.690383,18.0085257 115.690383,20.4741965 C115.690383,23.0047533 116.160586,25.3730949 117.100993,27.5792214 C118.0414,29.7853478 119.346619,31.7238192 121.016652,33.3946356 C122.686685,35.0654519 124.624247,36.3712841 126.829338,37.3121322 C129.03443,38.2529802 131.40166,38.7234043 133.93103,38.7234043 Z M134.067185,31.9148936 C132.484108,31.9148936 131.022185,31.6227912 129.681416,31.0385864 C128.340647,30.4543815 127.161416,29.634872 126.143724,28.5800577 C125.126032,27.5252434 124.334493,26.30815 123.769109,24.9287775 C123.203724,23.549405 122.921032,22.064551 122.921032,20.4742157 C122.921032,18.8514245 123.195647,17.3422286 123.744878,15.9466282 C124.294109,14.5510278 125.069493,13.3258204 126.071032,12.2710061 C127.07257,11.2161918 128.235647,10.3966823 129.560262,9.81247746 C130.884877,9.22827263 132.322569,8.93617021 133.873339,8.93617021 C135.424108,8.93617021 136.8618,9.22827263 138.186415,9.81247746 C139.51103,10.3966823 140.66603,11.2161918 141.651415,12.2710061 C142.636799,13.3258204 143.412184,14.5510278 143.977568,15.9466282 C144.542953,17.3422286 144.825645,18.8514245 144.825645,20.4742157 C144.825645,22.064551 144.55103,23.549405 144.001799,24.9287775 C143.452568,26.30815 142.693338,27.5252434 141.724107,28.5800577 C140.754876,29.634872 139.61603,30.4543815 138.307569,31.0385864 C136.999107,31.6227912 135.585646,31.9148936 134.067185,31.9148936 Z M187.272832,40 L197.186173,18.678035 L205.678987,39.9026561 L219.471462,2.76595745 L211.895314,2.76595745 L205.84775,22.6557502 L197.811448,2.76595745 L190.818081,2.76595745 L193.646995,9.83434154 L188.177356,23.479523 L181.153635,2.76595745 L172.897576,2.76595745 L187.272832,40 Z M229.624583,38.9361702 C230.886233,38.9361702 231.978046,38.749153 232.900021,38.3751186 C233.821996,38.0010842 234.598397,37.5620003 235.229222,37.0578669 C235.860047,36.5537336 236.33721,36.1146497 236.66071,35.7406153 L236.66071,35.7406153 L236.709235,35.6857298 L236.709235,38.350725 L243.502737,38.350725 L243.502737,17.030763 L237.194485,17.030763 L236.75412,19.2103266 L236.579203,19.0100708 C236.01055,18.3895599 235.337266,17.8102131 234.559349,17.2720304 L234.161671,17.0063694 C233.077946,16.3070877 231.484708,15.9574468 229.381958,15.9574468 C227.602707,15.9574468 225.920507,16.4371866 224.335356,17.3966662 C222.750206,18.3561458 221.47238,19.7140534 220.50188,21.4703889 C219.53138,23.2267245 219.04613,25.3083074 219.04613,27.7151376 C219.04613,30.2845914 219.515205,32.398699 220.453355,34.0574604 C221.391505,35.7162217 222.661243,36.9440304 224.262569,37.7408863 C225.863894,38.5377422 227.651232,38.9361702 229.624583,38.9361702 Z M231.518712,33.4042553 C230.509027,33.4042553 229.572625,33.1427487 228.709507,32.6197356 C227.846389,32.0967224 227.154266,31.3775793 226.633138,30.4623063 C226.11201,29.5470332 225.851446,28.5173511 225.851446,27.3732598 C225.851446,26.2291685 226.095725,25.2158305 226.584282,24.3332458 C227.07284,23.4506611 227.732392,22.7560342 228.56294,22.2493652 C229.393487,21.7426962 230.297318,21.4893617 231.274433,21.4893617 C232.153836,21.4893617 232.951813,21.6282871 233.668364,21.9061378 C234.384915,22.1839886 235.003754,22.5762484 235.524882,23.0829174 C236.04601,23.5895864 236.436856,24.2024925 236.69742,24.9216356 L236.69742,24.9216356 L236.69742,30.1681114 C236.339144,30.8872545 235.915728,31.4838164 235.427171,31.957797 C234.938613,32.4317777 234.36863,32.7913493 233.71722,33.0365117 C233.06581,33.2816741 232.332974,33.4042553 231.518712,33.4042553 Z M257.751368,38.2978723 L257.751368,0 L250.946052,0 L250.946052,38.2978723 L257.751368,38.2978723 Z M272,38.2978723 L272,0 L265.194683,0 L265.194683,38.2978723 L272,38.2978723 Z"/>
    <linearGradient id="logo-c" x1="0%" x2="0%" y1="0%" y2="100%">
      <stop offset="0%" stop-color="#CD5FFF"/>
      <stop offset="100%" stop-color="#71F9FF"/>
    </linearGradient>
    <linearGradient id="logo-d" x1="0%" x2="0%" y1="0%" y2="100%">
      <stop offset="0%" stop-color="#CD5FFF"/>
      <stop offset="100%" stop-color="#71F9FF"/>
    </linearGradient>
    <linearGradient id="logo-e" x1="0%" x2="0%" y1="0%" y2="100%">
      <stop offset="0%" stop-color="#CD5FFF"/>
      <stop offset="100%" stop-color="#71F9FF"/>
    </linearGradient>
    <linearGradient id="logo-f" x1="0%" x2="0%" y1="0%" y2="100%">
      <stop offset="0%" stop-color="#CD5FFF"/>
      <stop offset="100%" stop-color="#71F9FF"/>
    </linearGradient>
  </defs>
  <g fill="none" fill-rule="evenodd">
    <mask id="logo-b" fill="#fff">
      <use xlink:href="#logo-a"/>
    </mask>
    <use fill="#FFF" fill-rule="nonzero" xlink:href="#logo-a"/>
    <g mask="url(#logo-b)">
      <g transform="rotate(-45 -36.585 146.968)">
        <g fill-rule="nonzero" transform="translate(73.485 32.316)">
          <path fill="url(#logo-c)" d="M95.5021118,67.0235624 C92.8202339,73.2613096 91.6090633,81.6216235 91.8685998,92.1045042 C92.1281364,102.587385 87.1969416,106.529295 77.0750154,103.930233 C66.9530893,101.331172 58.3883825,101.37449 51.3808952,104.060186 C44.3734078,106.745883 38.0147619,105.662941 32.3049574,100.81136 C26.5951529,95.9597785 19.5876655,91.844598 11.2824953,88.4658183 C2.97732516,85.0870386 -0.742698985,79.1091975 0.12242291,70.5322952 C0.987544804,61.9553928 3.4531422,54.548068 7.51921511,48.3103209 C11.585288,42.0725737 13.9211171,34.4053428 14.5267025,25.3086281 C15.1322878,16.2119135 19.2416168,9.06449486 26.8546895,3.86637222 C34.4677621,-1.33175043 42.3403714,-1.28843274 50.4725172,3.99632528 C58.604663,9.28108331 66.6070405,12.4432746 74.4796497,13.4828991 C82.352259,14.5225236 88.7974171,18.2045272 93.8151241,24.5289097 C98.8328311,30.8532923 101.038892,37.9573932 100.433307,45.8412126 C99.8277213,53.7250319 98.1839897,60.7858152 95.5021118,67.0235624 Z"/>
          <path fill="url(#logo-d)" d="M139.180135,101.875431 C136.808803,112.540467 133.976378,124.45634 130.682862,137.623051 C127.389345,150.789762 119.353165,159.08479 106.574321,162.508134 C93.7954765,165.931479 81.8070763,164.878142 70.60912,159.348124 C59.4111638,153.818105 47.6862449,151.053096 35.4343633,151.053096 C23.1824818,151.053096 16.3978377,144.667241 15.0804311,131.895532 C13.7630244,119.123822 10.6012486,108.261285 5.5951034,99.3079221 C0.588958253,90.3545587 -1.05780002,80.6111926 0.654828584,70.0778239 C2.36745719,59.5444551 7.04425069,50.6569253 14.6852091,43.4152343 C22.3261675,36.1735433 29.6377742,25.5085074 36.6200293,11.4201268 C43.6022844,-2.66825392 53.0217417,-3.72159079 64.8784013,8.26011614 C76.7350608,20.2418231 90.1726083,23.9285021 105.191044,19.3201533 C120.209479,14.7118045 127.916308,19.8468217 128.31153,34.7252051 C128.706752,49.6035884 131.209825,61.8486295 135.820748,71.4603285 C140.431671,81.0720275 141.551466,91.2103949 139.180135,101.875431 Z" transform="translate(26.656 57.45)"/>
        </g>
        <path fill="url(#logo-e)" fill-rule="nonzero" d="M148.087723,94.7839745 C138.725486,102.95114 132.484195,111.548388 129.363852,120.575717 C126.243509,129.603046 120.594089,137.770449 112.415594,145.077925 C104.237098,152.385402 94.3903294,156.629861 82.8752872,157.811301 C71.3602449,158.992742 63.2885368,153.296286 58.6601631,140.721933 C54.0317894,128.14758 46.7670751,120.248029 36.8660202,117.023279 C26.9649654,113.798529 22.8212567,107.242559 24.4348941,97.3553696 C26.0485315,87.4681797 26.8550619,78.0108206 26.8544854,68.9832922 C26.8539089,59.9557638 28.8442433,50.6059508 32.8254888,40.9338534 C36.8067342,31.2617559 43.3170867,22.9332021 52.3565461,15.9481921 C61.3960056,8.9631821 71.5119359,6.54574034 82.7043372,8.69586679 C93.8967385,10.8459933 102.883168,16.0588902 109.663626,24.3345577 C116.444083,32.6102251 122.417365,40.2410175 127.583472,47.226935 C132.749578,54.2128524 139.79904,61.8437136 148.731856,70.1195185 C157.664672,78.3953234 157.449961,86.6168087 148.087723,94.7839745 Z" transform="rotate(105 151.515 130.611)"/>
        <path fill="url(#logo-f)" fill-rule="nonzero" d="M155.545539,112.73543 C153.851361,123.456783 150.392414,134.178137 145.168698,144.89949 C139.944982,155.620843 131.544682,162.180618 119.967798,164.578815 C108.390915,166.977013 97.4493476,166.835942 87.1430974,164.155604 C76.8368471,161.475266 64.4128743,161.686871 49.8711787,164.790421 C35.3294832,167.89397 24.2467346,163.802928 16.6229331,152.517293 C8.99913154,141.231658 3.77541566,129.099601 0.951785461,116.121121 C-1.87184474,103.142641 1.58710226,91.8570061 11.3286265,82.2642165 C21.0701507,72.6714269 27.2115463,61.667933 29.7528135,49.2537347 C32.2940807,36.8395364 38.5766579,25.2717608 48.6005451,14.5504077 C58.6244323,3.82905466 70.9778145,-0.967340125 85.6606915,0.161223354 C100.343569,1.28978683 112.132225,7.63795641 121.02666,19.2057321 C129.921095,30.7735077 136.838989,41.4948608 141.780342,51.3697912 C146.721695,61.2447217 150.674777,71.2607226 153.639589,81.4177939 C156.6044,91.5748652 157.239717,102.014077 155.545539,112.73543 Z" transform="translate(.35 67.442)"/>
      </g>
    </g>
  </g>
</svg>
