<svg xmlns="http://www.w3.org/2000/svg" xmlns:xlink="http://www.w3.org/1999/xlink" width="24" height="39" viewBox="0 0 24 39">
  <defs>
    <polygon id="logo-a" points="7.546 38.587 7.546 23.651 21.754 23.651 21.754 16.416 7.546 16.416 7.546 7.786 23.939 7.786 23.939 .55 0 .55 0 38.587"/>
    <polygon id="logo-c" points="0 .278 212.222 .278 212.222 271.389 0 271.389"/>
    <linearGradient id="logo-e" x1="0%" x2="0%" y1="0%" y2="100%">
      <stop offset="0%" stop-color="#CD5FFF"/>
      <stop offset="100%" stop-color="#71F9FF"/>
    </linearGradient>
    <linearGradient id="logo-f" x1="0%" x2="0%" y1="0%" y2="100%">
      <stop offset="0%" stop-color="#CD5FFF"/>
      <stop offset="100%" stop-color="#71F9FF"/>
    </linearGradient>
    <linearGradient id="logo-g" x1="0%" x2="0%" y1="0%" y2="100%">
      <stop offset="0%" stop-color="#CD5FFF"/>
      <stop offset="100%" stop-color="#71F9FF"/>
    </linearGradient>
  </defs>
  <g fill="none" fill-rule="evenodd">
    <mask id="logo-b" fill="#fff">
      <use xlink:href="#logo-a"/>
    </mask>
    <use fill="#FFF" fill-rule="nonzero" xlink:href="#logo-a"/>
    <g mask="url(#logo-b)">
      <g transform="translate(-27.222 -116.833)">
        <mask id="logo-d" fill="#fff">
          <use xlink:href="#logo-c"/>
        </mask>
        <g mask="url(#logo-d)">
          <g transform="rotate(-45 116.013 105.284)">
            <g fill-rule="nonzero" transform="translate(46.159 20.3)">
              <path fill="url(#logo-e)" d="M59.9887637,42.1002276 C58.304167,46.0184105 57.5433814,51.269864 57.7064069,57.854588 C57.8694324,64.4393121 54.7719482,66.915386 48.4139544,65.2828098 C42.0559606,63.6502336 36.6761197,63.6774432 32.2744316,65.3644386 C27.8727436,67.051434 23.8786193,66.3711939 20.2920587,63.3237183 C16.705498,60.2762428 12.30381,57.6913304 7.08699457,55.5689813 C1.87017912,53.4466323 -0.466519463,49.691707 0.0768988126,44.3042055 C0.620317088,38.916704 2.16905917,34.2638618 4.72312507,30.3456789 C7.27719096,26.427496 8.74442031,21.6113962 9.1248131,15.8973795 C9.50520589,10.1833628 12.0864427,5.69377818 16.8685235,2.42862576 C21.6506043,-0.836526652 26.5957107,-0.809317049 31.7038424,2.51025458 C36.8119742,5.8298262 41.8385933,7.81612725 46.7836996,8.46915774 C51.7288059,9.12218822 55.777272,11.4350045 58.929098,15.4076066 C62.080924,19.3802087 63.4666406,23.8425837 63.0862479,28.7947315 C62.7058551,33.7468794 61.6733603,38.1820447 59.9887637,42.1002276 Z"/>
              <path fill="url(#logo-f)" d="M87.4247076,63.9921047 C85.9351775,70.6912478 84.1560166,78.1760929 82.0872248,86.44664 C80.018433,94.717187 74.970581,99.9276317 66.9436688,102.077974 C58.9167566,104.228316 51.3863545,103.566672 44.3524623,100.093043 C37.3185702,96.6194128 29.9536714,94.882598 22.2577659,94.882598 C14.5618604,94.882598 10.3001493,90.8713826 9.47263258,82.848952 C8.64511586,74.8265214 6.65907573,68.00332 3.51451219,62.379348 C0.369948651,56.755376 -0.664447249,50.6351712 0.411324487,44.0187336 C1.48709622,37.4022959 4.42478058,31.8196767 9.22437756,27.2708758 C14.0239745,22.7220749 18.6166923,16.0229318 23.002531,7.17344646 C27.3883696,-1.67603889 33.3051141,-2.33768266 40.7527646,5.18851516 C48.2004151,12.714713 56.6410856,15.0304662 66.0747762,12.1357747 C75.5084669,9.24108322 80.3494397,12.4665966 80.5976947,21.8123147 C80.8459497,31.1580329 82.4182315,38.8496417 85.31454,44.887141 C88.2108485,50.9246404 88.9142377,57.2929616 87.4247076,63.9921047 Z" transform="translate(16.744 36.087)"/>
            </g>
            <path fill="url(#logo-g)" fill-rule="nonzero" d="M97.7044843,70.8137126 C96.6403021,77.5482308 94.4675967,84.2827491 91.1863681,91.0172673 C87.9051395,97.7517856 82.6285693,101.872247 75.3566573,103.378653 C68.0847454,104.885058 61.2119018,104.796446 54.7381265,103.112817 C48.2643512,101.429187 40.4603481,101.562105 31.3261173,103.511571 C22.1918864,105.461037 15.2303609,102.891286 10.4415409,95.8023198 C5.65272081,88.7133532 2.37149225,81.0927141 0.597855189,72.9404026 C-1.17578187,64.788091 0.996923528,57.6991244 7.11597139,51.6735028 C13.2350193,45.6478812 17.0926799,38.7361388 18.6889532,30.9382756 C20.2852266,23.1404123 24.231569,15.8742216 30.5279806,9.13970334 C36.8243922,2.40518509 44.5840543,-0.607625707 53.806967,0.101270951 C63.0298798,0.810167609 70.4348145,4.79771131 76.0217712,12.0639021 C81.608728,19.3300928 85.9541388,26.064611 89.0580036,32.2674568 C92.1618685,38.4703026 94.6449604,44.7617604 96.5072793,51.1418303 C98.3695982,57.5219002 98.7686665,64.0791943 97.7044843,70.8137126 Z" transform="translate(.22 42.363)"/>
          </g>
        </g>
      </g>
    </g>
  </g>
</svg>
